<svg width="71" height="71" viewBox="0 0 71 71" fill="none" xmlns="http://www.w3.org/2000/svg">
<g clip-path="url(#clip0_10_1762)">
<path d="M0 35.5C0 15.8939 15.8939 0 35.5 0C55.1061 0 71 15.8939 71 35.5C71 55.1061 55.1061 71 35.5 71C15.8939 71 0 55.1061 0 35.5Z" fill="white"/>
<g id="Clip path group">
<mask id="mask0_10_1762" style="mask-type:luminance" maskUnits="userSpaceOnUse" x="-9" y="-9" width="89" height="89">
<g id="__lottie_element_2">
<path id="rect1" d="M79.8964 -8.86755H-8.83887V79.8677H79.8964V-8.86755Z" fill="white"/>
</g>
</mask>
<g mask="url(#mask0_10_1762)">
<g id="g11">
<g id="Clip path group_2">
<mask id="mask1_10_1762" style="mask-type:luminance" maskUnits="userSpaceOnUse" x="-83" y="-84" width="238" height="239">
<g id="__lottie_element_4">
<path id="path1" d="M-82.9658 -83.0181H154.07V154.018H-82.9658V-83.0181Z" fill="white"/>
</g>
</mask>
<g mask="url(#mask1_10_1762)">
<g id="g10">
<g id="g3">
<g id="g2">
<path id="path2" d="M61.1353 19.9081L35.1983 19.9491C26.61 19.9491 19.6475 26.9116 19.6475 35.4999C19.6475 44.0881 26.61 51.0507 35.1983 51.0507H60.1751" stroke="black" stroke-width="6.23886" stroke-miterlimit="10" stroke-linecap="round"/>
</g>
</g>
<g id="g5">
<g id="g4">
<path id="path3" d="M5.75 35.4999H65.6628" stroke="black" stroke-width="6.23886" stroke-miterlimit="10" stroke-linecap="round"/>
</g>
</g>
<g id="g7">
<g id="g6">
<path id="path5" d="M35.5001 5.33777C52.1582 5.33777 65.6623 18.8419 65.6623 35.5C65.6623 52.1581 52.1582 65.6622 35.5001 65.6622C18.842 65.6622 5.33789 52.1581 5.33789 35.5C5.33789 18.8419 18.842 5.33777 35.5001 5.33777Z" stroke="black" stroke-width="6.23886" stroke-miterlimit="10" stroke-linecap="round"/>
</g>
</g>
</g>
</g>
</g>
</g>
</g>
</g>
</g>
<defs>
<clipPath id="clip0_10_1762">
<path d="M0 35.5C0 15.8939 15.8939 0 35.5 0C55.1061 0 71 15.8939 71 35.5C71 55.1061 55.1061 71 35.5 71C15.8939 71 0 55.1061 0 35.5Z" fill="white"/>
</clipPath>
</defs>
</svg>
