<svg preserveAspectRatio="none" overflow="visible" style="display: block;" width="67.9954" height="66.5302" viewBox="0 0 67.9954 66.5302" fill="none" xmlns="http://www.w3.org/2000/svg">
<g id="Group_931">
<path id="Path_8573" d="M49.7766 3.80474C48.0069 5.57441 46.3856 7.49245 44.9445 9.53764L44.4888 9.38928C41.8608 8.53093 39.1374 8.00109 36.3928 7.82095C35.5662 7.75737 32.4826 7.75737 31.4759 7.82095C28.4346 8.02229 26.1033 8.47795 23.454 9.39988C23.3481 9.44226 23.2527 9.47405 23.1573 9.50585C21.6632 7.47125 19.9995 5.56382 18.1662 3.81534C26.9616 -0.688325 37.2511 -1.22877 46.4598 2.32118C47.4453 2.69207 48.4096 3.12654 49.3527 3.5928L49.7766 3.80474Z" fill="#F00500"/>
<path id="Path_8574" d="M66.1806 43.9987C64.8454 47.8029 62.8425 51.3317 60.2463 54.4048C58.8369 56.0579 57.2792 57.5732 55.6049 58.9508C51.6841 62.1087 47.1062 64.3658 42.2211 65.5527C36.8167 66.8561 31.1791 66.8561 25.7748 65.5527C20.879 64.3658 16.3118 62.1087 12.3909 58.9508C10.7166 57.5732 9.15889 56.0579 7.74951 54.4048C0.278728 45.5776 -1.989 33.4548 1.81527 22.5295C2.53586 20.5055 3.43659 18.5556 4.51747 16.7012C5.01552 15.8534 5.63014 14.8997 5.92686 14.5076C6.94415 18.8841 8.19457 22.7308 8.66084 24.119C8.62905 24.1932 8.58666 24.2779 8.54427 24.3521C6.07521 29.3538 4.74001 34.1754 4.4221 39.3043C4.4221 39.3678 4.4115 39.442 4.4115 39.5056C4.32673 41.0422 4.36911 41.7733 4.62344 42.7376C5.4182 45.7578 7.86608 49.0852 11.7021 52.349C17.9861 57.6898 26.5059 61.5471 32.9594 61.9921C39.6884 62.4478 49.6177 58.5164 56.2301 52.7729C57.2686 51.8509 58.2435 50.876 59.1548 49.8375C59.8118 49.0746 60.7868 47.7606 60.7126 47.7606C60.6914 47.7606 60.7126 47.7394 60.755 47.7182C60.7868 47.697 60.8185 47.6652 60.7973 47.644C60.7868 47.6334 60.8079 47.6016 60.8397 47.591C60.8715 47.5804 60.8927 47.5592 60.8821 47.538C60.8715 47.5168 60.8821 47.4956 60.9245 47.485C60.9563 47.4744 60.9669 47.4427 60.9563 47.4215C60.9457 47.4003 60.9563 47.3791 60.9775 47.3791C60.9987 47.3791 61.0199 47.3473 61.0199 47.3261C61.0199 47.3049 61.0411 47.2731 61.0623 47.2731C61.0835 47.2731 61.1047 47.2519 61.1047 47.2307C61.1365 47.1459 61.1894 47.0612 61.2424 46.987C61.4014 46.7433 62.0372 45.6094 62.122 45.4187C62.726 44.0517 63.1075 42.833 63.2876 41.6144C63.3724 41.0316 63.4254 39.9613 63.383 39.707C63.3724 39.6646 63.3724 39.5904 63.3618 39.4738C63.3406 39.2619 63.33 38.944 63.3088 38.6261C63.2876 38.1492 63.2452 37.4816 63.2134 37.1531C62.7578 32.3421 61.5285 28.4107 59.1972 24.2461C59.1019 24.0872 59.0171 23.9282 58.9641 23.8011C58.9429 23.7693 58.9323 23.7375 58.9217 23.7163C59.2502 22.7308 60.596 18.6086 61.6663 13.893L61.6875 13.9142L61.8464 14.1261C62.122 14.497 62.8531 15.5991 63.1816 16.129C64.6758 18.5662 65.8415 21.1837 66.668 23.9176C68.586 30.4983 68.4271 37.5134 66.1806 43.9987Z" fill="#F00500"/>
<path id="Path_8575" d="M52.4258 31.3353C52.394 31.5049 51.896 32.0135 51.3979 32.3844C49.9355 33.4547 47.3181 34.4508 44.6583 34.9277C43.143 35.2032 41.6276 35.2456 41.1719 35.023C40.8752 34.8747 40.8328 34.7581 40.9388 34.3766C41.1613 33.5819 41.8819 32.7129 43.0052 31.897C43.5774 31.4837 45.8981 30.0743 46.979 29.4809C48.7593 28.506 50.2005 27.9231 51.1754 27.7854C51.4827 27.743 51.8536 27.7324 51.9701 27.7854C52.1609 27.8596 52.3728 28.4212 52.4576 29.0994C52.5 29.4597 52.4788 31.0492 52.4258 31.3353Z" fill="black"/>
<path id="Path_8576" d="M27.4596 34.8428C27.396 34.97 27.0781 35.1077 26.7178 35.1607C26.3575 35.2137 25.2555 35.1819 24.6303 35.1077C22.3837 34.811 19.9994 34.1222 18.2616 33.2745C17.2866 32.7976 16.5872 32.3208 16.068 31.8015L15.7713 31.4942L15.7395 31.0915C15.6865 30.3921 15.6971 29.2901 15.7819 28.898C15.8349 28.5695 15.9514 28.2516 16.1104 27.9655C16.1952 27.8595 16.1952 27.8595 16.5766 27.8595C17.0429 27.8595 17.435 27.9337 18.0708 28.135C19.3742 28.5377 21.3134 29.5126 23.6765 30.9326C25.6264 32.0982 26.3575 32.6705 26.9192 33.4546C27.3007 33.9421 27.555 34.6309 27.4596 34.8428Z" fill="black"/>
<path id="Path_8577" d="M42.4648 49.5937C42.4648 49.6255 42.3376 50.1342 42.1787 50.7382C42.0197 51.3422 41.8926 51.8297 41.8926 51.8509C41.776 51.8615 41.67 51.8721 41.5534 51.8615H41.2144L40.7481 52.9635C40.4938 53.5675 40.2606 54.1292 40.2288 54.214L40.1653 54.3623L39.9427 54.002L39.7202 53.6417V50.7064L39.6354 50.7276C39.4553 50.77 38.1731 50.9395 37.6114 50.9925C35.2907 51.2256 32.9594 51.1727 30.6493 50.8442C30.2784 50.7912 29.9605 50.7488 29.9499 50.7594C29.9393 50.77 29.9499 51.4482 29.9711 52.2853L30.0029 53.7901L29.8227 54.0656C29.7274 54.214 29.632 54.3411 29.632 54.3517C29.6002 54.3835 29.4942 54.214 29.2505 53.7265C28.9856 53.2179 28.7948 52.6774 28.6571 52.1158L28.5829 51.8085L28.2544 51.8297L27.9259 51.8615L27.8411 51.4694C27.7987 51.2574 27.7458 50.9289 27.7246 50.7488L27.6928 50.4097L27.4172 50.166C27.2583 50.0282 27.0993 49.8904 27.0676 49.8692C27.0146 49.8269 26.9934 49.7527 26.9934 49.6891V49.5619L28.318 49.5725L29.6426 49.5831L29.685 49.7209L29.7274 49.8587L30.183 49.8798C30.4374 49.8904 31.2427 49.9116 31.9633 49.9328L33.2879 49.9646L33.627 49.4348L33.9767 48.9049H34.4218L34.4112 47.8029L34.4006 46.7008L33.8177 46.4465C31.9421 45.6199 30.84 44.6768 30.4268 43.5323C30.342 43.2992 30.342 43.2144 30.3208 42.1547C30.3102 41.1057 30.3102 41.0103 30.3844 40.7771C30.5327 40.2473 30.946 39.834 31.4758 39.6963C31.656 39.6433 32.1329 39.6433 34.6337 39.6433L37.5796 39.6539L37.9081 39.8128C38.3002 40.0036 38.4804 40.1413 38.7029 40.438C38.9572 40.7771 39.0314 41.0421 39.0314 41.6885C39.0314 42.6104 38.9678 43.4052 38.8725 43.7231C38.7347 44.1575 38.5228 44.5708 38.2578 44.9417C37.728 45.6199 36.7637 46.2981 35.8841 46.6054L35.6298 46.7008L35.6404 47.8135L35.651 48.9261L35.8841 48.9473L36.1173 48.9685L36.4352 49.4454L36.7425 49.9222H38.1625C38.9466 49.9222 39.6354 49.9328 39.699 49.9434C39.805 49.9646 39.8262 49.954 39.9321 49.7739L40.0593 49.5831H41.2779C42.1893 49.5407 42.4648 49.5619 42.4648 49.5937Z" fill="black"/>
<path id="Path_8578" d="M36.8697 52.6351C36.6683 52.7517 36.5306 52.8047 36.4988 52.7835C36.467 52.7729 36.3186 52.6457 36.1597 52.5292L35.8736 52.296L35.5768 52.6139C34.9304 53.3133 34.9092 53.3451 34.7185 53.3557C34.4218 53.3875 34.3582 53.3345 33.9979 52.7941C33.8072 52.5186 33.6588 52.2854 33.6588 52.2854C33.6588 52.2854 33.5211 52.2642 33.3621 52.2537L33.0654 52.2219L32.9276 52.508L32.7899 52.7941L32.5461 52.7199C32.3554 52.6563 32.1647 52.5822 31.9845 52.4974L31.6666 52.3384V51.7344L34.4854 51.745L37.3041 51.7556L37.3147 52.0417C37.3253 52.3808 37.3359 52.3702 36.8697 52.6351Z" fill="black"/>
</g>
</svg>
