<svg preserveAspectRatio="none" overflow="visible" style="display: block;" width="68" height="68" viewBox="0 0 68 68" fill="none" xmlns="http://www.w3.org/2000/svg">
<g id="Group 2">
<circle id="Ellipse 1" cx="34" cy="34" r="34" fill="white"/>
<g id="icons8-ebay-logo 1" clip-path="url(#clip0_0_4)">
<path id="Vector" d="M16 29C9.998 28.999 9.971 33.529 10.002 34.704C10.002 34.704 9.708 40 16.06 40C21.518 40 21.786 36.677 21.786 36.677L19.276 36.682C19.276 36.682 18.787 38.513 16.071 38.463C12.579 38.4 12.443 35 12.443 35H22C22 35 22.643 29.001 16 29ZM12.523 33.515C12.523 33.515 12.695 30.55 16.147 30.549C19.587 30.548 19.587 33.515 19.587 33.515H12.523Z" fill="#F44336"/>
<path id="Vector_2" d="M28.825 29C25.767 28.983 24.451 30.719 24.451 30.719V25H22V40H24.316L24.418 38.265C24.418 38.265 25.529 40 28.774 40C32.02 40 34.583 38.102 34.652 34.584C34.719 31.064 31.884 29.016 28.825 29ZM28.264 38.431C24.402 38.477 24.465 34.543 24.465 34.543C24.465 34.543 24.324 30.67 28.258 30.573C32.191 30.476 32.133 34.624 32.133 34.624C32.133 34.624 32.126 38.384 28.264 38.431Z" fill="#1976D2"/>
<path id="Vector_3" d="M44.437 29H47.243L51.349 37.185L55.463 29H58L50.573 44H47.859L50.009 39.537L44.437 29Z" fill="#8BC34A"/>
<path id="Vector_4" d="M40.724 29.017C40.724 29.017 35.841 28.601 35.18 32H37.768C37.9 31.585 38.442 30.531 40.553 30.569C43.037 30.613 43.49 31.572 43.476 33C43.476 33 41.347 33.006 40.636 33.009C39.356 33.015 34.875 33.354 34.457 35.954C33.959 39.047 36.856 40.012 39.123 39.999C41.389 39.987 42.682 39.34 43.643 38.181L43.746 40.011L46 40V33.195C45.936 32.032 46 29.224 40.724 29.017ZM39.546 38.511C39.546 38.511 37.09 38.514 36.946 36.644C36.792 34.648 40.724 34.566 40.724 34.566L43.502 34.563C43.502 34.563 43.951 38.567 39.546 38.511Z" fill="#FFC107"/>
</g>
</g>
<defs>
<clipPath id="clip0_0_4">
<rect width="48" height="48" fill="white" transform="translate(10 10)"/>
</clipPath>
</defs>
</svg>
