<svg preserveAspectRatio="none" overflow="visible" style="display: block;" width="68" height="68" viewBox="0 0 68 68" fill="none" xmlns="http://www.w3.org/2000/svg">
<g id="Group 1">
<circle id="Ellipse 1" cx="34" cy="34" r="34" fill="#2A2AEA"/>
<g id="svgviewer-output 1">
<path id="Vector" d="M33.9999 9C21.9777 9 12.2834 18.3468 12.2834 30.8207C12.2834 43.3294 21.9777 52.6414 33.9999 52.6414C36.0499 52.6414 38.0305 52.3634 39.9068 51.8422L42.2695 57.9229C42.5127 58.583 42.9992 59 43.8679 59H47.6205C48.5239 59 49.184 58.4093 48.7671 57.2627L45.7094 49.3058C51.7205 45.5184 55.7164 38.8124 55.7164 30.786C55.7164 18.3467 46.0221 9 33.9999 9ZM43.4509 43.5031L40.7059 36.3801C40.4627 35.7894 39.9763 35.2335 38.9339 35.2335H35.355C34.4516 35.2335 33.7567 35.8242 34.1736 36.9708L37.7872 46.3176C36.6059 46.6303 35.3202 46.7693 33.9999 46.7693C25.2091 46.7693 18.9547 39.8548 18.9547 30.8207C18.9547 21.7867 25.2091 14.8721 33.9999 14.8721C42.7907 14.8721 49.0451 21.7867 49.0451 30.8207C49.0451 36.1022 46.9255 40.6192 43.4509 43.5031Z" fill="white"/>
</g>
</g>
</svg>
