<svg xmlns="http://www.w3.org/2000/svg" viewBox="0 0 512 512">
  <title>SNXX</title>
  <rect width="512" height="512" rx="86" fill="#003B71"/>
  <path fill="#fff" d="M43.93 274.20L43.93 274.20L66.43 272.02Q68.46 283.34 74.67 288.66Q80.88 293.97 91.43 293.97L91.43 293.97Q102.60 293.97 108.27 289.24Q113.93 284.52 113.93 278.19L113.93 278.19Q113.93 274.13 111.55 271.27Q109.16 268.42 103.23 266.31L103.23 266.31Q99.16 264.91 84.71 261.31L84.71 261.31Q66.12 256.70 58.62 249.98L58.62 249.98Q48.07 240.53 48.07 226.94L48.07 226.94Q48.07 218.19 53.03 210.57Q57.99 202.95 67.33 198.97Q76.66 194.98 89.87 194.98L89.87 194.98Q111.43 194.98 122.33 204.44Q133.23 213.89 133.77 229.67L133.77 229.67L110.65 230.69Q109.16 221.86 104.28 217.99Q99.40 214.13 89.63 214.13L89.63 214.13Q79.55 214.13 73.85 218.27L73.85 218.27Q70.18 220.92 70.18 225.38L70.18 225.38Q70.18 229.44 73.62 232.33L73.62 232.33Q77.99 236 94.87 239.98Q111.74 243.97 119.83 248.23Q127.91 252.48 132.48 259.87Q137.05 267.25 137.05 278.11L137.05 278.11Q137.05 287.95 131.59 296.55Q126.12 305.14 116.12 309.32Q106.12 313.50 91.20 313.50L91.20 313.50Q69.48 313.50 57.84 303.46Q46.20 293.42 43.93 274.20ZM178.23 311.47L156.74 311.47L156.74 196.94L179.24 196.94L226.12 273.42L226.12 196.94L247.60 196.94L247.60 311.47L224.40 311.47L178.23 236.78L178.23 311.47ZM288.15 311.47L260.41 311.47L299.55 251.70L264.09 196.94L291.12 196.94L314.09 233.73L336.59 196.94L363.38 196.94L327.76 252.56L366.90 311.47L339.01 311.47L313.62 271.86L288.15 311.47ZM394.87 311.47L367.13 311.47L406.27 251.70L370.80 196.94L397.84 196.94L420.80 233.73L443.30 196.94L470.10 196.94L434.48 252.56L473.62 311.47L445.73 311.47L420.34 271.86L394.87 311.47Z"/>
</svg>
